<svg xmlns="http://www.w3.org/2000/svg" width="105" height="105" viewBox="0 0 105 105"><g fill="none" fill-rule="evenodd"><circle cx="52.5" cy="52.5" r="52.5" fill="#F7F7F7" fill-rule="nonzero"/><path fill="#ECECEC" fill-rule="nonzero" stroke="#262626" d="M9 57.836h35.722v21.072H8.999V57.835zm65.93-3.662h24.734v8.862H74.929v-8.862z"/><path fill="#262626" fill-rule="nonzero" stroke="#262626" stroke-width=".35" d="M66.186 69.595a.294.294 0 0 0-.127.044l-9.513 8.273c-.102.077-.13.281-.048.396a.25.25 0 0 0 .36.044l9.359-8.136 9.358 8.136a.25.25 0 0 0 .36-.044c.081-.115.06-.323-.047-.396l-9.514-8.273a.278.278 0 0 0-.189-.044h.001zm-6.48 6.152l-.5.463v10.18c0 .163.112.296.25.296h4.256c.139 0 .251-.133.251-.296v-2.965c0-1.482 1-2.667 2.254-2.667 1.253 0 2.254 1.185 2.254 2.667v2.965c0 .163.112.296.25.296h4.256c.138 0 .25-.133.25-.296V76.21l-.5-.463v10.346h-3.756v-2.668c0-1.801-1.232-3.26-2.754-3.26-1.523 0-2.754 1.459-2.754 3.26v2.668h-3.757V75.747z"/><circle cx="52.5" cy="52.5" r="52.5" fill="#DBF5F1" fill-rule="nonzero"/><rect width="84.181" height="55.442" x="10.862" y="27.468" fill="#FFF" fill-rule="nonzero" rx="4"/><path fill="#262626" fill-rule="nonzero" d="M14.483 29.279c-1 0-1.81.81-1.81 1.81v48.2c0 1 .81 1.81 1.81 1.81h76.94c1 0 1.81-.81 1.81-1.81v-48.2c0-1-.81-1.81-1.81-1.81h-76.94zm0-1.81h76.94c2 0 3.62 1.62 3.62 3.62v48.2c0 2-1.62 3.621-3.62 3.621h-76.94c-2 0-3.62-1.62-3.62-3.62v-48.2c0-2 1.62-3.622 3.62-3.622z"/><path fill="#FFF" fill-rule="nonzero" d="M25.692 75.568V4.06h54.471v71.508"/><path fill="#262626" fill-rule="nonzero" d="M78.352 5.87v69.698h1.81V4.06H25.693v71.508h1.81V5.87h50.85-.001zm0 69.698h1.81V4.06H25.693v71.508h1.81V5.87h50.85v69.698h-.001z"/><path stroke="#262626" d="M56.047 82.594l-.865.265 2.797 9.128H45.67l2.285-9.144-.878-.219-2.339 9.363H26.623a.453.453 0 0 0 0 .905h51.421a.453.453 0 0 0 0-.905H58.926l-2.879-9.393z"/><path fill="#262626" fill-rule="nonzero" d="M12.672 79.29c0 1 .81 1.81 1.81 1.81h76.94c1 0 1.81-.81 1.81-1.81v-3.192h-80.56v3.192zm-1.81-5.003h84.181v5.002c0 2-1.62 3.621-3.62 3.621h-76.94c-2 0-3.62-1.62-3.62-3.62v-5.003z"/><path fill="#ECECEC" fill-rule="nonzero" d="M30.749 16.38H75.21v25.873H30.749z"/><path fill="#262626" fill-rule="nonzero" d="M32.56 40.443H73.4V18.19H32.56v22.253zM30.748 16.38H75.21v25.873H30.749V16.38z"/><path fill="#262626" fill-rule="nonzero" d="M65.926 28.123a2.513 2.513 0 0 0 2.523-2.502 2.512 2.512 0 0 0-2.523-2.502 2.513 2.513 0 0 0-2.522 2.502 2.513 2.513 0 0 0 2.522 2.502zm0 1.81c-2.393 0-4.333-1.93-4.333-4.312 0-2.382 1.94-4.312 4.333-4.312 2.394 0 4.333 1.93 4.333 4.312 0 2.38-1.94 4.312-4.333 4.312z"/><path fill="#FFF" fill-rule="nonzero" d="M31.687 41.321V36.64l10.367-8.308 8.967 7.497 5.306-2.84 14.35 8.332z"/><path fill="#262626" fill-rule="nonzero" d="M67.316 40.416l-11.007-6.391-4.86 2.603a.905.905 0 0 1-1.01-.104L42.043 29.5l-9.45 7.573v3.342h34.724zM55.9 32.19a.905.905 0 0 1 .881.015l14.351 8.333c.8.465.47 1.688-.454 1.688h-38.99a.905.905 0 0 1-.906-.905V36.64c0-.275.125-.535.34-.706l10.366-8.308a.905.905 0 0 1 1.147.012l8.497 7.105 4.768-2.552v-.001zm-3.751 23.02a4.526 4.526 0 0 1-1.792-3.615c0-.477.072-.937.208-1.369a2.706 2.706 0 0 0-2.59 2.713 2.705 2.705 0 0 0 2.695 2.716 2.661 2.661 0 0 0 1.479-.446zm1.09-1.447a2.734 2.734 0 0 0-.947-2.992 2.734 2.734 0 0 0 .947 2.992zm-1.669-5.26a4.484 4.484 0 0 1 3.292-1.434c2.488 0 4.505 2.027 4.505 4.526 0 2.499-2.017 4.526-4.505 4.526-.31 0-.61-.031-.901-.09a4.484 4.484 0 0 1-3.291 1.434c-2.49 0-4.506-2.026-4.506-4.526s2.017-4.526 4.506-4.526c.307 0 .609.032.9.09zm1.81.822a4.526 4.526 0 0 1 1.795 3.614c0 .478-.074.938-.21 1.37a2.706 2.706 0 0 0 2.591-2.714 2.705 2.705 0 0 0-2.694-2.716c-.547 0-1.056.164-1.48.446h-.001zM26.45 12.28v-1.81h52.633v1.81H26.45z"/><rect width="24.419" height="1.81" x="40.291" y="66.12" fill="#262626" fill-rule="nonzero" rx=".905"/><rect width="41.511" height="1.81" x="31.744" y="61.552" fill="#262626" fill-rule="nonzero" rx=".905"/></g></svg>