<svg xmlns="http://www.w3.org/2000/svg" width="114" height="105" viewBox="0 0 114 105"><g fill="none" fill-rule="evenodd"><ellipse cx="61.332" cy="52.213" fill="#DBF5F1" fill-rule="nonzero" rx="52.189" ry="52.213"/><path fill="#FFF" fill-rule="nonzero" d="M6.094 42.445a4.044 4.044 0 0 0-3.049.323 3.843 3.843 0 0 0-1.525 5.307l4.216 7.46a.531.531 0 0 0 .679.196l7.525-4.083a3.841 3.841 0 0 0 1.52-5.309c-1.076-1.902-3.54-2.61-5.461-1.566l-.95.515-.54-.953c-.553-1.01-1.527-1.62-2.415-1.889z"/><path fill="#262626" fill-rule="nonzero" d="M9.875 44.486c2.096-1.137 4.775-.369 5.95 1.706a4.205 4.205 0 0 1-1.664 5.806l-3.599 1.952-.163.089-3.762 2.041a.891.891 0 0 1-1.167-.335l-4.216-7.46a4.207 4.207 0 0 1 1.67-5.804 4.404 4.404 0 0 1 3.32-.352l.318.091-.003.016c.97.367 1.818 1.044 2.314 1.952l.365.644.637-.346zm-.34 8.122l.237-.128 3.547-1.922a2.607 2.607 0 0 0 1.03-3.596 2.67 2.67 0 0 0-3.624-1.04l-1.387.753a.891.891 0 0 1-1.167-.334l-.78-1.38a2.678 2.678 0 0 0-1.596-1.268 2.687 2.687 0 0 0-2.028.228 2.607 2.607 0 0 0-1.032 3.596l3.803 6.715 2.997-1.624z"/><path d="M5.895 43.344a3.04 3.04 0 0 1 1.81 1.438l.782 1.382a.53.53 0 0 0 .677.194l1.388-.754a3.032 3.032 0 0 1 4.111 1.18 2.97 2.97 0 0 1-1.172 4.093c-2.364 1.282-4.73 2.562-7.093 3.844L2.42 47.696a2.97 2.97 0 0 1 1.174-4.093 3.049 3.049 0 0 1 2.301-.258z"/><path fill="#FFF" fill-rule="nonzero" d="M8.155 71.218a5.448 5.448 0 0 0-2.585 3.153c-.849 2.76.705 5.574 3.494 6.319l10.931 2.923c.326.087.724-.134.824-.457l3.32-10.812c.85-2.76-.708-5.573-3.499-6.316-2.79-.743-5.778.914-6.626 3.675l-.419 1.367-1.398-.374c-1.463-.414-2.953-.064-4.042.522z"/><path fill="#262626" fill-rule="nonzero" d="M13.656 69.583c.893-2.9 4.026-4.639 6.957-3.858 2.939.783 4.584 3.75 3.689 6.659l-1.589 5.171-.072.236-1.66 5.404c-.142.463-.687.765-1.153.64l-10.93-2.923c-2.937-.784-4.579-3.752-3.683-6.662a5.721 5.721 0 0 1 2.712-3.31l.217-.12.004.007c1.253-.611 2.7-.807 4.023-.434l1.145.306.342-1.116h-.002zm7.237 7.801l.105-.34 1.567-5.093a3.56 3.56 0 0 0-2.51-4.527 3.829 3.829 0 0 0-4.658 2.583L14.786 72c-.14.462-.686.765-1.152.64l-2.024-.54a3.821 3.821 0 0 0-2.85.346 3.838 3.838 0 0 0-1.81 2.237 3.561 3.561 0 0 0 2.51 4.528l10.047 2.677 1.386-4.505z"/><path fill="#FFF" fill-rule="nonzero" d="M33.667 22.26c.491-5.834 3.39-9.18 8.693-10.04 5.304-.86 24.458-.86 57.461 0-5.681.676-8.713 3.767-9.094 9.272-.38 5.505-.145 29.635.708 72.39-9.113 6.581-18.989 9.872-29.628 9.872-10.64 0-20.113-2.784-28.42-8.353l.28-73.14z"/><g fill="#262626" fill-rule="nonzero" transform="translate(52.777 29.142)"><rect width="31.556" height="1.81" rx=".905"/><rect width="31.556" height="1.81" y="6.071" rx=".905"/></g><path fill="#262626" fill-rule="nonzero" d="M40.913 35.433h6.165v-5.277h-6.165v5.277zm-1.81-7.088h9.785v8.898h-9.784v-8.898zm1.81 25.015h6.165v-5.278h-6.165v5.277zm-1.81-7.088h9.785v8.897h-9.784v-8.897zm1.81 25.773h6.165v-5.277h-6.165v5.277zm-1.81-7.087h9.785v8.898h-9.784v-8.898z"/><g fill="#262626" fill-rule="nonzero" transform="translate(52.806 46.45)"><rect width="31.556" height="1.81" y=".618" rx=".905"/><rect width="31.556" height="1.81" y="6.69" rx=".905"/></g><g fill="#262626" fill-rule="nonzero" transform="translate(52.777 65.57)"><rect width="10.923" height="1.81" x=".03" y=".508" rx=".905"/><rect width="10.923" height="1.81" x=".03" y="6.58" rx=".905"/></g><path fill="#262626" fill-rule="nonzero" d="M93.766 13.14c-8.652.018-24.535.048-47.685.09h-1.138l-.039.002h-.05c-.185.002-.877.003-2.117.004-4.954.008-8.683 3.983-8.863 9.476v73.005l-1.845-1.222V22.682c.212-6.502 4.731-11.289 10.705-11.297.75 0 1.038-.002 1.32-.006l.048-.001h55.162c5.32-.038 9.739 4.29 9.939 9.805l.034.947H91.233v72.638h-.226c-.516 0-.825.133-.988.343a.519.519 0 0 0-.12.29h-.452v-74.21c.122-3.352 1.803-6.285 4.319-8.052z"/><path fill="#262626" fill-rule="nonzero" d="M22.42 84.788c9.556 11.176 23.533 17.827 38.45 17.827 13.888 0 26.876-5.653 36.343-15.49a51.048 51.048 0 0 0 3.031-3.445c.018.308.111.62.318.926.2.296.457.506.741.64a52.859 52.859 0 0 1-2.786 3.136c-9.522 9.893-22.87 16.043-37.647 16.043-16.607 0-31.511-7.897-41.106-20.017-.751-.97-1.11-1.476-1.077-1.52.812-.603 1.357-.767 1.636-.491.278.276.978 1.073 2.097 2.391z"/><path fill="#FFF" fill-rule="nonzero" d="M99.651 13.13c-4.177-.16-7.724 3.026-8.215 7.236h15.833c-.463-3.982-3.671-7.083-7.618-7.236zm-9.325 58.615l-1.755-2.074.59-1.39 1.165-.468 1.176.222.434 1.208v.91l-1.61 1.592zm-16.107.45h32.215V97.98H74.22V72.196z"/><path fill="#FFF" fill-rule="nonzero" d="M72.93 72.196h34.793v6.445H72.93z"/><path fill="#262626" fill-rule="nonzero" d="M90.017 84.699l.094-.097-.136-.141-.228.238h.27zm-.27-.475l.229.237.235-.246c.697-.75 1.702-1.172 2.76-1.187a3.83 3.83 0 0 1 2.772 1.186 4.093 4.093 0 0 1 .004 5.639l-5.06 5.284a.991.991 0 0 1-1.41 0l-2.53-2.637-.11-.114-2.42-2.523a4.093 4.093 0 0 1 0-5.64 3.82 3.82 0 0 1 5.53 0zm4.775 1.16a2.138 2.138 0 0 0-1.545-.679c-.568 0-1.117.235-1.542.679l-.937.978a.736.736 0 0 1-1.041 0l-.933-.974c-.869-.906-2.219-.906-3.087 0a2.408 2.408 0 0 0 0 3.305l2.386 2.484.158.166 1.998 2.082 4.542-4.736a2.408 2.408 0 0 0 .001-3.305zm-21.396-7.176h14.572v-5.686H73.126v5.687-.001zm2.27 1.658v17.937l29.894.002-.003-7.081.003-2.315v-3.288l-.003.002v-5.257h-29.89zm17.59-1.66h14.587v-5.685H92.986v5.686zm4.6-14.306c-.768.847-4.126 5.18-5.306 6.98l3.327.001c2.386-.203 4.141-.778 5.204-1.701l.003-.003a3.653 3.653 0 0 0 1.3-2.95 3.017 3.017 0 0 0-.992-2.073 2.93 2.93 0 0 0-1.805-.782l-.285-.018a2.218 2.218 0 0 0-1.445.546zm-8.239 14.307h1.989V72.52h-1.989v5.686zm1.01-9.745c-.43.003-.85.356-.987.839.147.25.282.469.61.996l.362.576c.11-.177.217-.351.325-.52.386-.615.513-.821.683-1.115-.008.014-.214-.308-.334-.447-.19-.223-.418-.33-.66-.33zM88.4 70.879c-1.184-1.81-4.57-6.183-5.301-6.976a2.165 2.165 0 0 0-1.376-.552l-.349.02a2.871 2.871 0 0 0-1.814.78 3.012 3.012 0 0 0-.995 2.073 3.67 3.67 0 0 0 1.303 2.952c1.083.923 2.836 1.5 5.205 1.702H88.4zm-16.117 0h7.105a8.12 8.12 0 0 1-.583-.427 5.36 5.36 0 0 1-1.873-4.258 4.6 4.6 0 0 1 1.519-3.265 4.593 4.593 0 0 1 2.812-1.215 3.944 3.944 0 0 1 2.972 1.014c.594.627 3.287 4.03 4.124 5.239.314-.661 1.057-1.127 1.848-1.186.874-.065 1.69.468 2.094 1.272.173-.272.382-.557.702-.972l.323-.421c.576-.763 1.186-1.55 1.851-2.386.077-.098.152-.196.264-.344l.109-.145c.55-.733.875-1.086 1.354-1.374a4.884 4.884 0 0 1 2.516-.697 4.593 4.593 0 0 1 2.809 1.215 4.588 4.588 0 0 1 1.517 3.265 5.34 5.34 0 0 1-1.87 4.258c-.19.15-.384.293-.585.426l7.147.002a.842.842 0 0 1 .768.813v7.36a.838.838 0 0 1-.808.812h-1.46v18.772a.842.842 0 0 1-.808.812H74.555a.847.847 0 0 1-.809-.813v-18.77l-1.467-.002a.86.86 0 0 1-.803-.807v-7.375a.85.85 0 0 1 .808-.804z"/></g></svg>