<svg xmlns="http://www.w3.org/2000/svg" width="105" height="105" viewBox="0 0 105 105"><g fill="none"><circle cx="52.5" cy="52.5" r="52.5" fill="#DBF5F1"/><path fill="#FFF" d="M78.508 97.415c4.865-2.87 8.026-5.134 9.485-6.792 1.784-2.027 4.926-4.028 5.444-6.817 2.019-10.857-6.964-29.513-22.043-28.155-15.08 1.358-20.872 12.15-20.872 25.567l-.487 22.97c2.846.098 5.172.08 6.98-.054 1.406-.104 3.704-.468 6.892-1.09a31.681 31.681 0 0 0 5.507-1.604l4.31-1.693a33.491 33.491 0 0 0 4.784-2.331v-.001z"/><path fill="#262626" d="M87.317 61.86v2.11l1.81.068v-.017c3.055 4.128 4.884 9.407 4.884 15.219v2.729l-.049 2.608-.504.769-.968 1.171-1.396-1.154.905-1.093.163-.25.039-2.051v-2.73c0-12.459-9.02-22.294-20.186-22.294-5.884 0-11.37 2.838-15.19 7.719-.048.063-.73.892-.978 1.2l-.07.09c-.106.13-.202.253-.29.364l-1.608-.878c.527-.695 1.365-1.692 1.521-1.891.247-.317.502-.625.763-.926v-19.89c0-9.103 7.38-16.483 16.483-16.483 9.103 0 16.483 7.38 16.483 16.483v21.288c3.053 4.128 4.882 9.407 4.882 15.219v2.729l-.049 2.608-.504.769-.968 1.171-1.396-1.154.905-1.093.163-.25.039-2.051v-2.73c0-12.459-9.02-22.294-20.186-22.294-5.884 0-11.37 2.838-15.19 7.719-.048.063-.73.892-.978 1.2l-.07.09c-.106.13-.202.253-.29.364l-1.608-.878c.527-.695 1.365-1.692 1.521-1.891.247-.317.502-.625.763-.926v.16h1.81v-2.028c3.315-3.054 7.45-5.049 11.985-5.515l4.931.095c4.802.677 9.118 3.03 12.428 6.525zm-29.343-1.105c3.314-3.054 7.45-5.049 11.984-5.515-5.11-1.213-8.911-5.806-8.911-11.287 0-.71.063-1.404.185-2.079a.905.905 0 0 1 .151-1.736c6.24-1.181 10.542-3.763 12.974-7.73a.902.902 0 0 1 1.135-.356c.187.081.34.223.437.403 1.614 3.027 4.068 5.096 7.4 6.236a.905.905 0 0 1 .303 1.537c.397 1.17.612 2.422.612 3.725 0 5.639-4.023 10.337-9.355 11.382 4.802.677 9.118 3.03 12.428 6.525V42.732c0-8.103-6.568-14.672-14.672-14.672-8.103 0-14.671 6.57-14.671 14.673v18.022zm34.474 22.83l1.514.992-1.81-.034.01-.522.286-.436zm-.385.607l1.395 1.154-1.514-.992.055-.084.064-.078zm0 0l1.395 1.154-1.514-.992.055-.084.064-.078zm.385-.607l1.514.992-1.81-.034.01-.522.286-.436zM81.586 39.961c-2.736-1.163-4.91-2.966-6.508-5.395-2.59 3.456-6.583 5.804-11.941 7.052a9.8 9.8 0 0 0-.28 2.335 9.788 9.788 0 0 0 9.789 9.789c5.405 0 9.788-4.382 9.788-9.789a9.73 9.73 0 0 0-.849-3.992z"/><path fill="#FFF" d="M61.047 104.188V80.581c0-13.486-10.912-24.418-24.735-24.418-13.823 0-25.02 10.932-25.02 24.418v4.454c6.286 7.343 13.741 12.675 22.368 15.996 8.625 3.32 17.754 4.373 27.387 3.157z"/><path fill="#262626" d="M36.017 55.321c6.08 0 11.01-4.928 11.01-11.01 0-6.08-4.93-11.009-11.01-11.009s-11.009 4.93-11.009 11.01 4.929 11.01 11.01 11.01h-.001zm0 1.81c-7.08 0-12.82-5.738-12.82-12.82 0-7.08 5.74-12.82 12.82-12.82 7.081 0 12.82 5.74 12.82 12.82 0 7.081-5.739 12.82-12.82 12.82z"/><path fill="#262626" d="M19.24 90.723v-3.627a.905.905 0 1 1 1.81 0v5.127c8.292 6.554 18.514 10.467 29.324 10.923V87.095a.905.905 0 0 1 1.81 0v16.095h.316c2.379 0 4.73-.165 7.042-.487V80.58c0-12.476-10.386-22.607-23.22-22.607-12.833 0-23.218 10.131-23.218 22.607v3.815a51.366 51.366 0 0 0 6.136 6.328v-.001zm42.112 11.695c11.63-2.05 22.13-8.096 29.784-17.104l2.322.032C83.838 97.33 69.065 105 52.5 105c-16.648 0-31.588-7.877-41.206-19.964v-4.454c0-13.487 11.206-24.419 25.028-24.419 13.824 0 25.03 10.932 25.03 24.418v21.837z"/><path fill="#262626" d="M26.256 59.279l1.209-1.349a13.407 13.407 0 0 0 8.98 3.433c3.23 0 6.356-1.187 8.788-3.263l1.176 1.378c-2.756 2.35-6.297 3.695-9.966 3.695a15.22 15.22 0 0 1-10.187-3.894z"/><path fill="#FFF" d="M28.767 27.603c.905-.039 1.648-.027 2.227.038 1.328.149 3.009.494 5.045 1.037 2.027-.54 3.726-.885 5.096-1.037.576-.064 1.297-.078 2.16-.044a4.526 4.526 0 0 1 4.342 4.522v6.34H24.44v-6.334a4.526 4.526 0 0 1 4.327-4.522z"/><path fill="#262626" d="M46.27 35.745H26.144v1.82h20.128v-1.82zm0-1.81v-2.429c0-1.866-1.43-3.402-3.249-3.49-.778-.036-1.417-.022-1.913.042-1.236.157-2.79.522-4.657 1.094l-.244.074-.245-.075c-1.873-.576-3.412-.94-4.609-1.093-.495-.064-1.155-.076-1.974-.034-1.813.093-3.236 1.628-3.236 3.489v2.421h20.128zm-21.83 3.63v-6.052c0-2.792 2.134-5.093 4.853-5.234.91-.047 1.666-.033 2.272.045 1.25.161 2.794.52 4.642 1.08 1.844-.556 3.405-.916 4.69-1.08.603-.077 1.336-.093 2.205-.052 2.726.131 4.872 2.435 4.872 5.234v6.059h2.4a.905.905 0 0 1 0 1.81H21.662a.905.905 0 0 1 0-1.81h2.778zM13.342 85.303l-.589.804-1.46-1.071.81-.643 1.24.91zm-1.458-1.071l-.59.804C20.912 97.123 35.85 105 52.5 105c16.565 0 31.336-7.67 40.96-19.654l-2.324-.032C81.58 96.56 67.586 103.19 52.5 103.19c-15.47 0-29.929-7.098-39.518-18.944l-.685-.009-.195.155-.218-.16zm-.59.804l1.459 1.071.59-.804-1.24-.911-.81.643z"/><path fill="#262626" d="M85.76 92.483a.905.905 0 0 1-1.81 0V78.75a.905.905 0 0 1 1.81 0v13.733zm-53.29-77.98a.905.905 0 0 1 1.28 0l3.9 3.9a.905.905 0 0 1-1.28 1.28l-3.9-3.9a.905.905 0 0 1 0-1.28zm41.808 0a.905.905 0 0 0-1.28 0l-3.9 3.9a.905.905 0 1 0 1.28 1.28l3.9-3.9a.905.905 0 0 0 0-1.28z"/><rect width="1.81" height="4.883" x="52.5" y="8.547" fill="#262626" rx=".905"/><path fill="#262626" d="M78.114 56.492l1.46 1.068-5.964 8.146a.905.905 0 0 1-1.462-.002l-6.213-8.557 1.466-1.063 5.483 7.551 5.23-7.144z"/></g></svg>